<svg id="eknZtNLMYfU1" xmlns="http://www.w3.org/2000/svg" xmlns:xlink="http://www.w3.org/1999/xlink" viewBox="0 0 849.329 850.535" shape-rendering="geometricPrecision" text-rendering="geometricPrecision"><g id="eknZtNLMYfU2"/><path id="eknZtNLMYfU3" d="M185.7,711.263C188.659,712.719,192.449,714.291,195.114,716.408C194.771,718.718,193.764,720.643,192.487,722.1C191.274,723.482,189.777,725.077,187.78,725.603C188.809,722.546,191.316,720.966,192.158,717.721C191.466,716.485,189.795,716.403,188.765,715.532C188.247,715.095,187.72,714.266,187.232,713.562C186.672,712.752,186.044,712.063,185.7,711.263Z" transform="matrix(1 0 0 1 274.055488 -350.725925)" clip-rule="evenodd" fill="rgb(0,0,0)" fill-rule="evenodd" stroke="none" stroke-width="1" stroke-miterlimit="1"/><path id="eknZtNLMYfU4" d="M194.894,731.624C192.11,735.188,184.98,734.407,180.226,736.003C180.23,729.717,190.13,729.475,194.894,731.624Z" transform="matrix(1 0 0 1 274.055488 -350.725925)" clip-rule="evenodd" fill="rgb(0,0,0)" fill-rule="evenodd" stroke="none" stroke-width="1" stroke-miterlimit="1"/><path id="eknZtNLMYfU5" d="M144.76,799.163C155.318,798.483,165.695,800.911,168.951,807.81C170.418,810.915,170.046,819.975,170.046,824.338C170.046,830.018,170.617,837.898,168.951,841.634C163.663,853.492,130.889,853.728,126.589,840.977C125.293,837.135,125.713,830.057,125.713,824.667C125.713,819.013,125.383,811.215,126.808,807.919C127.982,805.203,130.793,802.901,133.704,801.57C136.833,800.139,140.853,799.415,144.76,799.163ZM144.979,812.079C144.805,819.331,144.979,826.358,144.979,833.753C144.979,836.651,144.712,840.52,145.855,841.525C146.852,842.403,149.387,842.063,150.014,841.415C151.227,840.164,150.781,836.267,150.781,833.534C150.781,827.67,150.781,822.085,150.781,816.13C150.781,811.198,151.6,806.872,147.387,807.482C145.147,807.806,145.04,809.529,144.979,812.079Z" transform="matrix(1 0 0 1 274.055489 -350.725925)" clip-rule="evenodd" fill="rgb(0,0,0)" fill-rule="evenodd" stroke="none" stroke-width="1" stroke-miterlimit="1"/><path id="eknZtNLMYfU6" d="M74.704,800.038C81.089,800.038,87.475,800.038,93.86,800.038C93.86,805.876,93.86,811.714,93.86,817.553C95.502,817.808,97.618,817.589,99.442,817.662C99.442,811.788,99.442,805.913,99.442,800.038C105.864,800.038,112.286,800.038,118.708,800.038C118.708,816.458,118.708,832.878,118.708,849.298C112.541,849.48,105.609,849.48,99.442,849.298C99.442,842.402,99.442,835.505,99.442,828.609C97.618,828.609,95.794,828.609,93.969,828.609C93.714,835.323,93.932,842.511,93.86,849.408C87.474,849.408,81.089,849.408,74.704,849.408C74.449,833.279,74.667,816.678,74.595,800.367C74.584,800.211,74.576,800.057,74.704,800.038Z" transform="matrix(1 0 0 1 274.055488 -350.725925)" clip-rule="evenodd" fill="rgb(0,0,0)" fill-rule="evenodd" stroke="none" stroke-width="1" stroke-miterlimit="1"/><path id="eknZtNLMYfU7" d="M177.49,800.038C183.876,800.038,190.261,800.038,196.646,800.038C196.646,813.174,196.646,826.309,196.646,839.445C200.514,839.445,204.381,839.445,208.25,839.445C208.25,842.765,208.25,846.087,208.25,849.407C197.997,849.333,187.451,849.552,177.381,849.298C177.381,832.987,177.381,816.677,177.381,800.366C177.371,800.211,177.362,800.057,177.49,800.038Z" transform="matrix(1 0 0 1 274.05549 -350.725925)" clip-rule="evenodd" fill="rgb(0,0,0)" fill-rule="evenodd" stroke="none" stroke-width="1" stroke-miterlimit="1"/><path id="eknZtNLMYfU8" d="M213.065,800.038C219.611,800.166,226.84,799.87,233.864,800.038C243.293,800.265,253.531,800.408,256.414,807.044C257.308,809.103,257.301,812.582,257.398,815.692C257.607,822.342,257.399,828.383,257.398,834.958C257.398,839.042,257.243,843.138,255.428,845.356C252.051,849.485,243.118,849.407,236.162,849.407C228.231,849.407,220.789,849.407,212.955,849.407C212.955,833.059,212.955,816.714,212.955,800.366C212.947,800.211,212.938,800.057,213.065,800.038ZM232.112,808.795C232.112,819.485,232.112,830.177,232.112,840.867C233.745,840.886,236.216,840.886,237.148,839.883C238.195,838.753,238.132,835.35,238.132,832.877C238.132,827.242,238.132,822.248,238.132,816.895C238.132,814.383,238.397,810.688,237.476,809.561C236.549,808.428,234.065,808.508,232.221,808.467C232.094,808.485,232.103,808.639,232.112,808.795Z" transform="matrix(1 0 0 1 274.055487 -350.725925)" clip-rule="evenodd" fill="rgb(0,0,0)" fill-rule="evenodd" stroke="none" stroke-width="1" stroke-miterlimit="1"/><path id="eknZtNLMYfU9" d="M140.272,770.264C143.518,779.57,148.302,787.336,152.313,795.878C138.124,795.879,123.819,795.877,109.404,795.878C107.402,795.878,105.104,796.2,103.383,795.878C102.149,795.647,100.076,794.344,98.676,793.799C93.963,791.965,88.499,790.451,83.241,789.201C79.42,788.291,76.219,787.508,73.28,785.697C70.456,783.959,68.013,781.922,65.07,780.552C64.599,781.863,64.415,783.847,62.662,784.055C61.187,784.23,59.659,783.005,58.611,782.195C56.214,780.34,54.781,778.6,51.934,777.05C49.746,775.859,47.84,775.306,47.994,772.452C48.124,770.032,49.937,768.159,50.293,766.212C45.405,765.808,41.619,763.045,37.814,760.849C35.856,759.719,33.952,758.771,32.231,757.566C30.556,756.392,29.235,754.852,27.852,753.078C25.24,749.723,22.963,746.401,19.643,743.555C18.14,742.266,16.376,740.987,14.716,739.614C13.083,738.264,11.623,736.399,10.009,735.455C7.555,734.017,3.249,734.711,2.128,732.061C0.95,729.28,2.265,726.586,4.427,725.494C5.902,724.748,8.206,724.865,10.118,724.29C11.731,723.805,12.13,722.882,14.059,722.866C19.728,722.82,24.08,728.733,28.398,730.2C28.521,728.116,26.338,727.03,25.552,725.274C23.888,721.56,27.107,717.555,31.244,719.364C34.384,720.736,36.993,723.995,39.125,727.135C41.343,730.401,42.408,734.622,45.365,736.44C45.164,735.189,45.052,733.47,45.693,732.17C47.072,729.377,52.71,727.251,54.669,730.967C55.596,732.722,55.386,736.031,56.093,737.863C57.004,740.227,58.056,741.421,59.267,743.009C60.357,740.898,60.556,737.378,63.098,736.988C66.358,736.488,70.526,740.402,72.184,741.804C72.17,742.255,72.374,742.49,72.293,743.009C77.315,745.29,81.606,748.354,88.493,749.138C95.137,749.896,102.677,749.255,109.948,749.686C105.898,746.005,101.505,741.196,100.972,733.376C100.376,724.651,103.326,718.269,109.291,715.532C107.683,713.85,105.541,716.739,103.708,716.299C102.517,716.013,102.461,714.23,102.065,712.905C99.252,712.384,95.126,713.282,94.95,710.387C94.847,708.69,96.5,707.858,97.139,706.228C97.956,704.147,97.363,702.461,98.124,700.645C93.988,702.239,92.659,696.493,95.169,694.515C92.32,694.094,89.741,692.83,87.068,691.34C84.8,690.076,81.661,688.805,80.61,686.633C78.74,682.772,82.625,680.242,86.302,682.146C85.395,681.125,84.499,677.823,86.193,676.782C88.204,675.546,91.761,677.782,94.511,677.11C95.746,676.809,96.639,675.902,97.138,674.811C95.952,674.94,94.766,676.015,93.198,676.125C88.48,672.738,97.019,669.043,98.234,666.492C96.545,667.064,94.826,666.346,94.73,664.849C94.598,662.763,98.006,660.501,99.766,659.486C102.759,657.757,105.953,656.793,107.756,654.451C108.227,653.841,108.595,652.623,109.18,651.933C111.43,649.276,115.397,646.593,118.702,644.38C128.659,637.712,141.276,631.864,155.153,629.821C171.217,627.456,186.503,631.464,194.123,640.329C196.464,643.053,199.179,647.378,198.83,652.589C198.777,653.375,198.174,654.597,198.282,655.435C198.368,656.09,199.403,656.785,199.925,657.296C200.519,657.879,201.289,658.465,201.676,658.939C204.168,661.986,204.18,666.889,204.412,672.183C204.645,677.482,206.028,681.236,207.367,685.101C211.364,684.621,215.944,682.664,218.752,685.101C219.737,685.955,220.43,687.597,220.832,688.931C221.238,690.28,221.732,692.41,221.379,694.185C221.108,695.55,219.694,696.246,219.628,697.908C219.553,699.774,220.105,701.367,220.066,702.943C219.944,707.888,218.766,712.513,216.454,715.64C215.96,716.309,214.765,717.105,214.594,717.829C214.358,718.825,214.865,720.538,214.922,721.77C215.381,731.868,212.735,739.797,208.683,745.414C213.301,745.568,218.023,745.13,222.585,744.757C236.513,743.62,248.671,740.897,256.628,733.921C256.598,733.403,256.705,732.614,256.956,732.06C257.65,730.521,260.575,728.275,262.319,727.572C265.104,726.451,266.396,728.203,268.34,729.543C269.208,727.013,270.373,724.564,270.201,721.443C270.119,719.964,269.472,718.439,269.544,716.955C269.846,710.791,280.612,712.107,279.943,718.487C283.649,713.648,284.049,701.219,289.576,697.799C293.03,695.66,296.365,698.588,295.925,702.506C295.691,704.598,294.299,705.466,294.393,708.088C296.662,706.715,298.091,704.01,299.975,701.74C301.519,699.88,304.471,696.809,307.419,696.813C308.183,696.814,308.91,696.982,309.718,697.032C313.21,697.25,316.206,695.832,318.584,697.689C319.143,698.126,320.088,699.187,320.335,699.878C320.795,701.163,320.429,703.376,319.679,704.256C318.423,705.727,315.609,706.148,314.096,707.54C312.761,708.769,311.905,710.8,310.812,712.466C307.606,717.355,304.041,722.375,301.946,728.229C301.189,730.343,300.571,732.33,299.538,734.031C298.538,735.677,297.275,737.092,295.816,738.519C292.376,741.886,289.427,745.298,285.307,747.713C286.176,748.831,287.008,750.025,288.154,751.216C289.029,752.127,290.966,753.362,290.671,755.157C290.324,757.274,287.519,758.116,286.184,759.426C285.209,760.381,283.626,762.831,282.79,764.023C281.558,765.783,280.078,769.287,277.536,767.636C277.204,767.42,276.833,766.761,276.66,766.76C276.365,766.758,274.671,768.749,274.033,769.388C261.766,781.652,244.107,788.072,225.76,794.564C224.406,795.043,223.032,795.712,221.929,795.877C220.223,796.133,218.173,795.877,216.346,795.877C203.566,795.878,191.063,795.876,178.034,795.877C179.796,788.846,182.651,782.907,184.055,775.517C181.505,776.105,179.627,778.314,176.611,778.801C176.444,778.427,176.976,778.394,177.159,778.253C179.302,776.606,183.586,775.249,184.821,772.671C185.668,770.903,185.588,768.368,185.806,766.103C186.027,763.816,186.241,761.456,186.134,758.988C180.923,759.689,176.22,760.896,170.918,761.506C172.174,764.641,174.093,767.379,174.093,772.016C174.093,773.685,173.885,775.356,173.765,777.161C172.91,772.981,173.468,767.387,170.809,765.011C169.856,768.394,169.423,771.759,168.402,775.081C168.077,776.136,167.461,777.161,167.417,778.145C167.356,779.469,168.244,781.225,168.84,782.633C170.67,786.964,171.817,791.502,173.327,795.878C168.292,795.878,163.257,795.878,158.222,795.878C158.698,791.67,158.848,787.341,159.864,783.18C160.25,781.603,160.896,780.17,160.631,778.693C160.328,777.014,159.251,775.333,158.661,773.547C158.059,771.731,157.555,769.867,156.472,768.621C155.535,770.747,155.202,773.746,154.501,776.175C154.284,776.926,154.47,778.055,153.625,778.363C154.265,775.019,154.148,771.836,154.829,768.84C155.467,766.035,157.312,763.869,157.894,761.287C148.818,760.549,142.819,756.732,135.673,754.062C136.909,758.458,137.225,763.275,139.066,766.65C139.689,767.793,141.132,768.763,142.241,769.935C145.18,773.044,148.169,776.712,150.779,780.005C146.981,777.495,144.124,773.09,140.272,770.264ZM110.17,653.357C109.7,653.966,109.544,654.803,109.074,655.436C106.385,659.069,100.816,660.362,97.69,663.319C97.244,663.74,96.527,664.356,96.705,664.741C98.368,665.05,100.451,664.936,101.521,665.837C99.493,667.925,97.397,670.209,95.063,671.966C94.338,672.512,93.202,673.226,93.42,674.374C94.922,673.906,96.124,673.138,97.69,672.732C100.727,674.528,97.445,677.96,95.391,678.643C103.514,677.047,108.68,670.357,117.503,669.776C117.966,669.747,118.458,669.724,118.925,669.776C122.122,670.134,125.154,672.166,127.683,673.717C128.911,674.471,130.254,675.289,131.623,676.125C132.874,676.889,134.501,678.152,135.783,678.314C137.665,678.552,139.989,677.857,141.803,677.438C143.73,676.994,145.869,676.71,147.386,676.015C148.811,675.363,149.751,673.95,151.436,673.716C149.924,672.746,148.043,672.146,145.963,671.745C143.045,669.768,139.208,668.694,135.345,667.476C128.11,665.196,119.524,661.858,110.496,663.864C106.43,664.768,103.268,666.774,99.879,668.243C104.462,663.073,112.726,659.754,121.881,660.909C129.264,661.839,135.221,664.029,141.365,665.616C140.357,663.61,137.477,663.106,135.344,661.893C134.363,661.334,133.457,660.499,132.498,660.142C131.07,659.61,129.462,659.748,128.667,658.39C133.505,657.918,137.063,659.588,140.488,660.909C144.347,662.395,147.956,663.923,151.873,665.178C153.847,665.81,155.961,666.633,158.002,666.929C165.121,667.962,171.487,665.404,175.626,662.441C171.131,659.09,166.698,655.732,161.287,653.356C155.697,650.902,148.925,650.169,141.145,651.168C134.249,652.051,127.79,653.428,121.55,654.998C115.237,656.589,109.441,658.987,103.16,660.144C115.672,654.688,130.944,649.547,148.15,648.322C150.725,648.138,153.801,647.905,156.031,648.431C157.389,648.751,158.799,649.866,160.738,649.744C162.565,651.672,165.243,651.683,167.744,653.027C168.405,653.382,169.048,654.072,169.714,654.56C170.43,655.083,171.167,655.519,171.903,655.984C173.372,656.909,174.874,658.099,176.391,658.611C178.029,659.162,180.37,659.162,182.63,659.267C184.75,659.366,187.859,659.439,189.308,658.939C190.501,658.527,192.393,657.089,193.03,655.874C194.454,653.155,193.802,647.914,192.374,645.693C191.547,644.41,190.314,643.088,189.198,641.972C181.279,634.052,165.45,631.824,150.34,634.747C142.634,636.237,135.732,638.745,129.652,641.753C126.532,643.296,123.472,644.773,120.675,646.569C117.84,648.389,115.414,650.782,112.246,652.042C112.445,651.726,112.988,651.245,113.45,650.838C113.792,650.536,114.724,649.741,114.326,650.071C113.042,651.049,111.209,652.007,110.17,653.357ZM195.004,662.223C196.141,661.827,197.339,661.494,198.068,660.691C197.452,659.629,196.931,658.471,195.879,657.845C195.304,659.002,193.646,660.801,195.004,662.223ZM198.397,662.004C197.955,663.094,196.626,663.298,195.989,664.193C195.854,664.912,196.315,665.035,196.318,665.617C197.48,665.841,198.684,666.022,199.93,666.164C200.144,664.439,199.761,662.502,198.397,662.004ZM188.436,665.179C185.888,666.118,183.063,665.686,180.117,666.711C178.758,667.186,177.387,668.2,176.067,669.01C173.326,670.693,170.609,672.03,167.309,672.951C165.649,673.414,163.734,673.349,161.946,673.935C161.195,674.181,160.447,674.933,159.428,675.468C154.389,678.109,149.082,681.197,142.461,682.364C136.913,683.342,131.55,683.421,126.808,684.663C125.346,685.046,124.093,685.879,122.538,686.414C120.805,687.012,117.699,687.104,116.956,688.494C116.129,690.039,117.303,692.878,117.831,694.296C118.893,697.139,120.016,699.25,120.021,702.506C124.627,701.207,130.061,702.399,134.36,700.645C135.304,700.26,136.014,699.449,136.878,699.113C139.696,698.016,143.912,698.063,147.277,697.581C156.277,696.291,164.248,694.841,173.001,693.311C174.625,693.028,176.98,692.266,178.146,692.436C179.968,692.7,180.741,695.696,182.962,695.829C185.965,696.01,185.888,692.554,187.67,691.341C189.503,690.093,192.771,690.001,195.441,689.481C198.386,688.907,201.024,688.654,202.884,687.292C200.113,678.313,197.645,669.033,192.813,662.115C191.634,663.147,190.25,664.51,188.436,665.179ZM197.412,667.587C197.513,668.654,198.441,668.894,198.397,670.105C200.61,671.042,201.641,668.167,200.368,666.93C199.067,666.833,198.463,667.434,197.412,667.587ZM200.586,675.14C201.588,675.233,201.287,677.211,202.009,677.22C201.64,675.401,201.982,672.868,200.914,671.746C200.444,672.152,199.983,672.566,199.601,673.06C200.483,673.2,200.512,674.194,200.586,675.14ZM119.474,673.608C117.149,673.19,114.36,673.836,112.249,674.483C106.233,676.331,100.766,680.519,93.859,680.504C93.063,680.502,92.124,680.459,91.451,680.285C90.402,680.012,89.074,679.574,88.495,678.642C89.17,678.425,89.727,679.175,90.028,678.642C88.987,678.376,87.862,677.847,86.853,678.423C86.961,680.518,88.271,681.986,89.699,682.693C90.796,683.234,92.593,683.379,91.122,684.443C88.029,684.144,85.262,683.518,82.037,683.349C81.694,684.945,82.427,686.765,83.569,686.852C83.293,686.289,82.446,686.296,82.474,685.429C86.764,686.915,89.682,689.802,94.734,689.588C96.225,689.525,97.87,689.317,99.66,689.15C101.947,688.937,103.198,687.528,105.243,687.071C106.661,686.754,107.324,688.437,108.527,687.509C108.035,686.868,106.669,686.522,106.447,685.976C109.133,685.968,111.076,684.747,113.015,683.568C117.152,681.05,121.063,678.888,126.698,677.877C124,676.971,122.249,674.106,119.474,673.608ZM203.213,675.907C203.049,675.524,203.3,674.725,202.885,674.593C203.077,674.95,202.818,675.754,203.213,675.907ZM203.652,678.971C203.553,678.303,203.335,677.756,203.104,677.22C203.248,677.842,203.301,678.555,203.652,678.971ZM98.347,693.311C97.79,695.491,95.193,695.629,95.501,698.674C95.946,698.883,97.189,699.097,97.581,698.674C97.07,698.674,96.691,698.541,96.705,698.018C97.789,698.008,98.85,696.825,99.77,696.705C103.813,696.177,107.643,694.751,110.169,692.655C111.021,691.948,112.081,691.059,112.357,690.137C108.245,691.583,103.829,694.308,98.347,693.311ZM99.442,699.113C99.799,699.085,99.969,699.243,99.99,699.551C99.566,702.776,98.97,705.828,98.019,708.526C97.498,709.063,96.749,709.374,96.706,710.387C97.618,710.862,99.353,711.096,100.646,710.825C99.718,710.587,98.797,710.34,98.019,709.95C98.272,709.228,98.869,709.03,99.223,708.417C99.629,707.718,99.507,706.911,99.771,706.118C100.332,704.436,102.45,701.951,104.04,701.412C104.248,701.341,104.593,701.466,104.807,701.412C106.766,700.925,108.199,698.527,110.39,698.893C112.436,696.842,115.387,694.567,114.768,690.575C112.256,696.018,106.267,697.983,99.442,699.113ZM110.06,702.616C109.64,702.964,108.888,703.264,109.075,703.6C113.57,703.723,117.685,701.022,115.753,696.485C114.726,699.225,112.032,700.983,110.06,702.616ZM292.208,699.661C291.014,699.429,290.316,700.942,289.69,701.741C288.183,703.662,286.461,706.606,285.967,708.855C285.963,708.971,286.019,709.133,286.077,708.964C287.265,707.268,288.755,705.295,291.879,705.899C292.608,705.138,294.325,700.071,292.208,699.661ZM306.109,713.562C308.105,710.291,309.646,706.362,312.568,704.586C313.735,703.877,316.88,703.266,316.837,701.63C316.81,700.545,315.12,699.86,314.429,699.77C308.03,698.92,304.403,703.87,302.388,707.541C301.389,709.362,300.885,711.467,299.87,713.123C299.022,714.509,296.611,715.446,296.915,717.721C297.133,719.358,299.237,720.08,299.979,721.772C300.218,722.317,299.93,722.789,300.636,723.304C301.911,720.137,304.137,716.793,306.109,713.562ZM306.657,699.989C302.648,701.954,300.102,706.487,297.024,710.059C296.082,711.153,294.209,712.246,294.178,713.671C294.147,715.102,295.608,716.244,296.805,716.955C297.549,713.373,299.567,710.502,301.074,707.432C302.498,704.532,304.252,702.698,306.438,700.754C306.503,700.695,307.433,700.231,306.766,699.988C306.73,699.989,306.694,699.989,306.657,699.989ZM202.995,716.627C197.293,713.904,192.788,709.783,189.422,704.914C188.934,704.207,188.586,703.295,187.78,702.834C190.924,709.286,195.699,714.692,202.995,716.627ZM183.62,706.775C183.475,708.788,183.625,710.233,183.292,711.811C182.323,716.395,180.44,719.971,177.6,722.975C174.15,726.624,168.822,729.877,162.384,730.309C148.862,731.216,144.296,720.129,139.616,711.92C135.724,712.309,135.321,709.209,134.8,706.228C130.085,705.816,124.845,707.413,120.679,708.198C119.079,708.501,117.314,708.417,115.863,708.855C114.879,709.153,114.069,709.907,113.127,710.606C112.475,711.09,110.857,711.987,110.828,712.795C110.796,713.67,112.271,715.133,112.799,715.86C113.617,716.992,114.31,717.931,114.55,719.035C112.597,718.951,111.258,717.83,109.405,718.487C107.721,719.084,106.615,721.207,106.011,722.427C102.044,730.448,105.392,739.922,111.156,744.977C115.358,748.663,122.643,751.246,128.123,747.275C129.662,746.16,129.764,744.48,131.845,743.445C134.513,749.269,140.277,752.84,147.17,755.048C153.867,757.194,163.146,757.803,171.908,757.128C174.405,756.936,177.181,755.897,180.118,755.268C183.036,754.642,186.076,754.376,188.437,753.516C190.27,752.848,191.634,751.555,193.582,751.327C195.783,749.843,197.829,748.204,200.041,746.729C200.562,745.229,202.012,744.584,202.996,743.446C204.134,742.13,205.008,740.363,205.952,738.63C208.761,733.472,210.122,726.776,209.345,718.817C200.252,720.612,194.924,715.86,190.518,711.811C188.233,709.71,186.695,706.96,184.388,705.243C184.315,705.243,184.242,705.243,184.169,705.243C183.855,705.598,183.653,706.303,183.62,706.775ZM104.258,706.775C102.71,707.672,101.411,708.818,100.099,709.95C102.068,709.765,102.486,708.031,104.368,707.761C104.394,707.559,104.723,706.77,104.258,706.775ZM281.261,720.239C280.463,721.446,279.288,722.507,278.853,723.743C278.441,724.91,278.893,726.622,278.744,728.011C275.583,725.552,279.377,714.056,272.833,716.408C273.83,721.237,272.915,726.143,271.52,729.981C271.075,731.208,270.182,732.948,270.425,734.141C270.645,735.217,272.616,736.442,273.38,737.205C275.733,739.559,276.86,741.119,279.072,743.555C279.629,744.168,281.569,746.287,282.356,746.291C283.502,746.297,284.383,744.46,285.749,744.539C287.455,742.377,289.486,740.365,291.66,738.191C293.657,736.194,296.427,734.203,297.462,731.623C298.14,729.935,297.64,728.092,298.119,726.15C298.345,725.239,299.109,724.373,298.994,723.084C298.834,721.287,296.066,719.525,294.944,718.049C293.7,716.412,292.294,714.174,291.77,712.029C291.39,710.472,292.119,708.463,290.894,707.103C288.756,707.226,287.377,708.406,287.172,710.058C286.705,713.811,288.44,716.425,289.799,718.925C291.537,722.12,293.855,726.183,291.003,729.323C287.778,732.874,281.401,733.143,280.057,738.3C279.872,739.005,280.26,740.194,279.181,740.379C277.691,737.821,279.131,734.702,280.494,733.374C283.491,730.452,290.227,730.687,291.44,726.259C290.294,725.152,288.937,723.589,286.843,723.522C285.709,723.486,284.196,724.382,283.449,723.194C285.151,722.767,287.029,721.359,289.031,722.099C290.155,722.513,290.072,724.07,291.439,724.179C289.546,719.503,285.971,716.511,285.965,709.949C285.929,709.438,285.218,709.601,285.199,709.073C285.408,708.478,285.945,707.632,285.746,706.994C284.335,711.993,283.688,716.569,281.261,720.239ZM103.383,711.044C103.831,711.033,104.243,711.059,104.258,711.482C104.001,712.356,103.74,713.629,104.149,714.547C105.554,713.982,106.652,713.109,108.637,713.123C108.64,712.464,108.45,711.996,108.528,711.263C109.227,710.963,110.502,710.701,110.389,709.95C107.851,709.674,104.712,709.747,103.383,711.044ZM143.447,712.358C144.488,715.737,146.415,718.777,148.592,721.335C150.712,723.824,153.258,726.517,156.583,727.136C152.273,724.497,148.755,720.968,146.184,716.738C145.307,715.295,144.631,713.709,143.666,712.25C143.643,712.127,143.545,712.08,143.447,712.031C143.447,712.139,143.447,712.249,143.447,712.358ZM38.033,732.061C38.481,736.684,36.242,741.096,35.954,744.758C35.965,744.881,35.795,744.929,35.954,744.978C36.879,744.407,37.024,743.057,37.705,742.241C39.509,741.865,42.179,740.893,43.726,742.132C40.46,742.843,37.592,743.953,36.501,746.839C37.999,748.887,40.985,749.099,43.726,749.466C46.609,749.853,49.021,750.463,50.622,752.422C51.37,753.337,52.75,755.109,52.045,756.8C49.811,749.21,35.381,754.765,35.297,744.759C35.262,740.562,37.446,736.695,36.83,732.171C36.484,729.64,34.896,727.507,31.684,728.45C33.188,733.991,31.263,738.802,29.495,742.789C29.084,743.718,28.262,745.194,28.291,745.854C28.319,746.46,29.011,747.233,29.386,747.825C30.13,748.997,30.664,749.8,30.81,751.327C31.331,752.01,31.943,752.602,32.123,753.626C36.037,756.419,40.225,759.179,44.93,761.397C47.372,762.549,49.328,763.762,52.593,763.696C54.528,760.387,55.931,756.253,57.409,752.312C57.837,751.17,58.836,749.469,58.612,748.043C58.436,746.914,57.154,745.673,56.424,744.648C53.974,741.216,52.241,737.403,51.936,732.388C50.62,731.636,48.996,732.333,48.542,733.265C46.842,736.755,51.766,742.503,49.09,745.196C49.173,743.544,48.56,742.588,47.995,741.584C48.2,741.162,48.639,740.468,48.214,740.052C48.258,740.461,48.126,740.694,47.776,740.709C43.396,737.9,40.44,733.668,38.033,728.887C35.131,726.28,32.982,722.918,28.948,721.444C26.432,723.004,29.302,725.942,30.261,727.354C34.417,725.674,37.678,728.387,38.033,732.061ZM20.519,729.981C22.378,731.803,23.651,734.232,25.445,735.783C26.745,736.907,28.622,737.468,28.948,739.395C29.845,738.417,30.948,736.944,30.48,735.455C30.11,734.276,27.963,733.456,26.758,732.718C22.675,730.22,19.129,726.486,13.951,725.933C13.884,725.939,13.821,725.949,13.841,726.041C16.459,727.14,18.585,728.086,20.519,729.981ZM28.948,739.942C28.533,737.933,25.825,737.449,24.241,736.331C21.576,730.868,13.182,724.386,5.742,728.669C6.024,729.378,5.09,729.572,5.304,730.42C5.612,731.638,8.232,731.288,9.683,731.624C12.457,732.267,14.947,735.127,17.236,737.206C19.647,739.395,22.46,741.448,24.242,743.446C25.376,744.716,25.819,745.928,27.198,746.729C26.16,743.893,29.486,742.551,28.948,739.942ZM263.637,732.717C263.183,733.03,262.914,733.528,262.324,733.703C267.418,743.824,273.119,753.339,278.963,762.711C279.165,762.439,279.294,762.093,279.619,761.944C278.001,760.59,276.021,758.977,276.336,756.361C276.578,754.345,278.681,752.461,281.043,752.64C282.805,752.773,283.043,754.244,284.546,754.828C277.78,747.256,270.603,740.092,263.637,732.717ZM64.415,742.898C61.338,751.243,57.989,759.315,54.453,767.2C59.39,765.813,60.822,773.093,57.628,775.081C58.434,776.063,59.398,776.887,60.583,777.489C62.528,766.151,64.618,754.96,67.042,744.102C66.2,743.667,65.535,743.054,64.415,742.898ZM279.728,759.537C279.293,759.534,279.279,759.111,279.181,758.77C282.546,759.563,281.468,754.194,278.962,755.924C278.947,755.574,279.069,755.086,278.634,755.158C277.694,756.452,278.304,759.619,279.728,759.537ZM55.219,768.731C54.233,768.876,53.627,769.403,53.248,770.155C53.019,772.301,54.056,774.284,55.766,773.766C55.184,773.801,54.732,773.706,54.671,773.219C56.004,773.344,56.822,771.878,56.642,771.03C56.414,769.966,54.842,770.12,53.905,770.046C53.909,769.245,55.157,769.109,55.219,768.731Z" transform="matrix(1 0 0 1 274.055488 -350.725925)" clip-rule="evenodd" fill="rgb(0,0,0)" fill-rule="evenodd" stroke="none" stroke-width="1" stroke-miterlimit="1"/></svg>